G04 EAGLE Gerber RS-274X export*
G75*
%MOMM*%
%FSLAX34Y34*%
%LPD*%
%INTop Copper*%
%IPPOS*%
%AMOC8*
5,1,8,0,0,1.08239X$1,22.5*%
G01*
%ADD10C,1.320800*%
%ADD11P,1.429621X8X22.500000*%
%ADD12C,1.930400*%
%ADD13R,1.930400X1.930400*%
%ADD14C,6.350000*%
%ADD15C,0.508000*%

G36*
X175228Y16779D02*
X175228Y16779D01*
X175393Y16786D01*
X175452Y16799D01*
X175513Y16805D01*
X175672Y16848D01*
X175832Y16884D01*
X175889Y16907D01*
X175947Y16923D01*
X176096Y16994D01*
X176248Y17057D01*
X176299Y17090D01*
X176354Y17117D01*
X176488Y17212D01*
X176626Y17302D01*
X176684Y17353D01*
X176720Y17379D01*
X176763Y17422D01*
X176860Y17508D01*
X181628Y22276D01*
X181733Y22402D01*
X181845Y22523D01*
X181877Y22574D01*
X181916Y22621D01*
X181998Y22764D01*
X182086Y22903D01*
X182110Y22959D01*
X182140Y23012D01*
X182195Y23167D01*
X182257Y23319D01*
X182270Y23379D01*
X182291Y23436D01*
X182317Y23599D01*
X182352Y23760D01*
X182357Y23836D01*
X182364Y23881D01*
X182363Y23942D01*
X182371Y24071D01*
X182371Y28767D01*
X187133Y33529D01*
X191829Y33529D01*
X191992Y33543D01*
X192157Y33550D01*
X192216Y33563D01*
X192277Y33569D01*
X192436Y33612D01*
X192596Y33648D01*
X192653Y33671D01*
X192711Y33687D01*
X192860Y33758D01*
X193012Y33821D01*
X193063Y33854D01*
X193118Y33881D01*
X193252Y33976D01*
X193390Y34066D01*
X193448Y34117D01*
X193484Y34143D01*
X193527Y34186D01*
X193624Y34272D01*
X198392Y39040D01*
X198497Y39166D01*
X198609Y39287D01*
X198641Y39338D01*
X198680Y39385D01*
X198762Y39528D01*
X198850Y39667D01*
X198874Y39723D01*
X198904Y39776D01*
X198959Y39931D01*
X199021Y40083D01*
X199034Y40143D01*
X199055Y40201D01*
X199081Y40363D01*
X199116Y40524D01*
X199121Y40600D01*
X199128Y40645D01*
X199127Y40706D01*
X199135Y40835D01*
X199135Y67209D01*
X199124Y67339D01*
X199122Y67469D01*
X199104Y67562D01*
X199095Y67658D01*
X199061Y67783D01*
X199036Y67911D01*
X199002Y68000D01*
X198977Y68092D01*
X198921Y68209D01*
X198874Y68331D01*
X198824Y68413D01*
X198783Y68499D01*
X198708Y68604D01*
X198640Y68716D01*
X198577Y68787D01*
X198521Y68865D01*
X198428Y68956D01*
X198342Y69053D01*
X198267Y69112D01*
X198199Y69179D01*
X198091Y69252D01*
X197989Y69332D01*
X197905Y69378D01*
X197826Y69431D01*
X197707Y69484D01*
X197592Y69545D01*
X197501Y69574D01*
X197414Y69613D01*
X197288Y69644D01*
X197164Y69684D01*
X197069Y69697D01*
X196976Y69720D01*
X196847Y69728D01*
X196718Y69746D01*
X196622Y69742D01*
X196527Y69748D01*
X196398Y69733D01*
X196268Y69727D01*
X196175Y69707D01*
X196080Y69695D01*
X195955Y69658D01*
X195828Y69630D01*
X195740Y69593D01*
X195649Y69565D01*
X195533Y69506D01*
X195413Y69456D01*
X195333Y69404D01*
X195247Y69361D01*
X195144Y69282D01*
X195035Y69212D01*
X194937Y69126D01*
X194889Y69089D01*
X194858Y69056D01*
X194800Y69005D01*
X193867Y68071D01*
X187133Y68071D01*
X183813Y71392D01*
X183687Y71497D01*
X183566Y71609D01*
X183514Y71641D01*
X183467Y71680D01*
X183325Y71762D01*
X183186Y71850D01*
X183129Y71874D01*
X183076Y71904D01*
X182921Y71959D01*
X182769Y72021D01*
X182710Y72034D01*
X182652Y72055D01*
X182490Y72081D01*
X182329Y72116D01*
X182252Y72121D01*
X182208Y72128D01*
X182147Y72127D01*
X182017Y72135D01*
X164291Y72135D01*
X162798Y72754D01*
X148954Y86598D01*
X148335Y88091D01*
X148335Y125984D01*
X148332Y126019D01*
X148334Y126053D01*
X148312Y126242D01*
X148295Y126433D01*
X148286Y126466D01*
X148282Y126500D01*
X148227Y126683D01*
X148177Y126867D01*
X148162Y126898D01*
X148152Y126931D01*
X148065Y127102D01*
X147983Y127274D01*
X147963Y127302D01*
X147948Y127333D01*
X147832Y127485D01*
X147721Y127640D01*
X147696Y127664D01*
X147676Y127691D01*
X147536Y127820D01*
X147399Y127954D01*
X147370Y127973D01*
X147344Y127997D01*
X147183Y128099D01*
X147026Y128206D01*
X146994Y128220D01*
X146965Y128238D01*
X146788Y128311D01*
X146614Y128388D01*
X146580Y128396D01*
X146548Y128409D01*
X146361Y128449D01*
X146176Y128495D01*
X146142Y128497D01*
X146108Y128504D01*
X145796Y128523D01*
X142116Y128523D01*
X141223Y129416D01*
X141223Y149984D01*
X142116Y150877D01*
X162684Y150877D01*
X163577Y149984D01*
X163577Y147334D01*
X163592Y147157D01*
X163602Y146979D01*
X163612Y146933D01*
X163617Y146885D01*
X163663Y146714D01*
X163704Y146541D01*
X163723Y146497D01*
X163735Y146451D01*
X163811Y146291D01*
X163882Y146127D01*
X163908Y146087D01*
X163929Y146044D01*
X164032Y145900D01*
X164130Y145752D01*
X164163Y145717D01*
X164191Y145678D01*
X164318Y145554D01*
X164441Y145426D01*
X164479Y145397D01*
X164513Y145364D01*
X164660Y145265D01*
X164804Y145160D01*
X164847Y145139D01*
X164886Y145112D01*
X165049Y145040D01*
X165209Y144962D01*
X165255Y144949D01*
X165298Y144930D01*
X165471Y144888D01*
X165642Y144839D01*
X165689Y144835D01*
X165736Y144823D01*
X165913Y144812D01*
X166090Y144795D01*
X166138Y144798D01*
X166185Y144796D01*
X166362Y144816D01*
X166539Y144830D01*
X166585Y144842D01*
X166632Y144848D01*
X166803Y144899D01*
X166974Y144944D01*
X167018Y144964D01*
X167063Y144978D01*
X167222Y145059D01*
X167383Y145133D01*
X167422Y145161D01*
X167465Y145182D01*
X167606Y145290D01*
X167752Y145392D01*
X167785Y145425D01*
X167823Y145454D01*
X167944Y145585D01*
X168069Y145711D01*
X168096Y145750D01*
X168128Y145785D01*
X168215Y145921D01*
X171469Y149175D01*
X172168Y149465D01*
X172355Y149563D01*
X172545Y149659D01*
X172555Y149667D01*
X172567Y149673D01*
X172735Y149803D01*
X172903Y149931D01*
X172912Y149941D01*
X172923Y149949D01*
X173065Y150106D01*
X173209Y150262D01*
X173216Y150273D01*
X173224Y150283D01*
X173336Y150463D01*
X173450Y150642D01*
X173455Y150654D01*
X173462Y150665D01*
X173540Y150862D01*
X173621Y151059D01*
X173624Y151071D01*
X173629Y151084D01*
X173671Y151291D01*
X173716Y151499D01*
X173717Y151514D01*
X173719Y151525D01*
X173720Y151564D01*
X173735Y151811D01*
X173735Y158496D01*
X173732Y158531D01*
X173734Y158565D01*
X173712Y158754D01*
X173695Y158945D01*
X173686Y158978D01*
X173682Y159012D01*
X173627Y159195D01*
X173577Y159379D01*
X173562Y159410D01*
X173552Y159443D01*
X173465Y159614D01*
X173383Y159786D01*
X173363Y159814D01*
X173348Y159845D01*
X173232Y159997D01*
X173121Y160152D01*
X173096Y160176D01*
X173076Y160203D01*
X172936Y160332D01*
X172799Y160466D01*
X172770Y160485D01*
X172744Y160509D01*
X172583Y160611D01*
X172426Y160718D01*
X172394Y160732D01*
X172365Y160750D01*
X172188Y160823D01*
X172014Y160900D01*
X171980Y160908D01*
X171948Y160921D01*
X171761Y160961D01*
X171576Y161007D01*
X171542Y161009D01*
X171508Y161016D01*
X171196Y161035D01*
X120904Y161035D01*
X120869Y161032D01*
X120835Y161034D01*
X120646Y161012D01*
X120455Y160995D01*
X120422Y160986D01*
X120388Y160982D01*
X120205Y160927D01*
X120021Y160877D01*
X119990Y160862D01*
X119957Y160852D01*
X119786Y160765D01*
X119614Y160683D01*
X119586Y160663D01*
X119555Y160648D01*
X119403Y160532D01*
X119248Y160421D01*
X119224Y160396D01*
X119197Y160376D01*
X119068Y160236D01*
X118934Y160099D01*
X118915Y160070D01*
X118891Y160044D01*
X118789Y159883D01*
X118682Y159726D01*
X118668Y159694D01*
X118650Y159665D01*
X118577Y159488D01*
X118500Y159314D01*
X118492Y159280D01*
X118479Y159248D01*
X118439Y159061D01*
X118393Y158876D01*
X118391Y158842D01*
X118384Y158808D01*
X118365Y158496D01*
X118365Y151811D01*
X118384Y151599D01*
X118400Y151388D01*
X118403Y151375D01*
X118405Y151362D01*
X118461Y151157D01*
X118514Y150952D01*
X118520Y150940D01*
X118523Y150928D01*
X118613Y150738D01*
X118703Y150544D01*
X118711Y150533D01*
X118717Y150521D01*
X118839Y150349D01*
X118962Y150175D01*
X118971Y150166D01*
X118979Y150155D01*
X119131Y150006D01*
X119281Y149858D01*
X119292Y149850D01*
X119301Y149841D01*
X119478Y149722D01*
X119651Y149602D01*
X119666Y149595D01*
X119674Y149589D01*
X119711Y149573D01*
X119932Y149465D01*
X120631Y149175D01*
X123775Y146031D01*
X125477Y141923D01*
X125477Y137477D01*
X123775Y133369D01*
X120631Y130225D01*
X116523Y128523D01*
X112077Y128523D01*
X107969Y130225D01*
X104742Y133452D01*
X104645Y133577D01*
X104541Y133722D01*
X104507Y133755D01*
X104478Y133793D01*
X104346Y133912D01*
X104219Y134036D01*
X104179Y134062D01*
X104144Y134094D01*
X103993Y134188D01*
X103846Y134288D01*
X103802Y134307D01*
X103762Y134332D01*
X103597Y134398D01*
X103434Y134470D01*
X103388Y134481D01*
X103343Y134499D01*
X103169Y134535D01*
X102996Y134577D01*
X102949Y134580D01*
X102902Y134589D01*
X102724Y134594D01*
X102547Y134604D01*
X102500Y134599D01*
X102452Y134600D01*
X102276Y134573D01*
X102100Y134552D01*
X102054Y134539D01*
X102007Y134531D01*
X101839Y134474D01*
X101669Y134422D01*
X101626Y134400D01*
X101581Y134385D01*
X101426Y134298D01*
X101267Y134218D01*
X101230Y134189D01*
X101188Y134166D01*
X101050Y134053D01*
X100909Y133946D01*
X100876Y133911D01*
X100840Y133881D01*
X100724Y133745D01*
X100603Y133615D01*
X100578Y133574D01*
X100547Y133538D01*
X100457Y133385D01*
X100362Y133235D01*
X100344Y133191D01*
X100320Y133150D01*
X100258Y132983D01*
X100191Y132818D01*
X100181Y132772D01*
X100164Y132727D01*
X100133Y132552D01*
X100111Y132449D01*
X100105Y132425D01*
X100105Y132421D01*
X100096Y132378D01*
X100092Y132319D01*
X100086Y132284D01*
X100086Y132221D01*
X100077Y132066D01*
X100077Y129416D01*
X99184Y128523D01*
X95504Y128523D01*
X95469Y128520D01*
X95435Y128522D01*
X95246Y128500D01*
X95055Y128483D01*
X95022Y128474D01*
X94988Y128470D01*
X94805Y128415D01*
X94621Y128365D01*
X94590Y128350D01*
X94557Y128340D01*
X94386Y128253D01*
X94214Y128171D01*
X94186Y128151D01*
X94155Y128136D01*
X94003Y128020D01*
X93848Y127909D01*
X93824Y127884D01*
X93797Y127864D01*
X93668Y127724D01*
X93534Y127587D01*
X93515Y127558D01*
X93491Y127532D01*
X93389Y127371D01*
X93282Y127214D01*
X93268Y127182D01*
X93250Y127153D01*
X93177Y126976D01*
X93100Y126802D01*
X93092Y126768D01*
X93079Y126736D01*
X93039Y126549D01*
X92993Y126364D01*
X92991Y126330D01*
X92984Y126296D01*
X92965Y125984D01*
X92965Y113491D01*
X92346Y111998D01*
X85072Y104724D01*
X84967Y104598D01*
X84855Y104477D01*
X84823Y104426D01*
X84784Y104379D01*
X84702Y104236D01*
X84614Y104097D01*
X84590Y104041D01*
X84560Y103988D01*
X84505Y103833D01*
X84443Y103681D01*
X84430Y103621D01*
X84409Y103563D01*
X84383Y103401D01*
X84348Y103240D01*
X84343Y103164D01*
X84336Y103119D01*
X84337Y103058D01*
X84329Y102929D01*
X84329Y99983D01*
X83091Y96995D01*
X80805Y94709D01*
X77817Y93471D01*
X74583Y93471D01*
X71595Y94709D01*
X69309Y96995D01*
X68071Y99983D01*
X68071Y103217D01*
X69309Y106205D01*
X71595Y108491D01*
X74583Y109729D01*
X77529Y109729D01*
X77692Y109743D01*
X77857Y109750D01*
X77916Y109763D01*
X77977Y109769D01*
X78136Y109812D01*
X78296Y109848D01*
X78353Y109871D01*
X78411Y109887D01*
X78560Y109958D01*
X78712Y110021D01*
X78763Y110054D01*
X78818Y110081D01*
X78952Y110176D01*
X79090Y110266D01*
X79148Y110317D01*
X79184Y110343D01*
X79227Y110386D01*
X79324Y110472D01*
X84092Y115240D01*
X84197Y115366D01*
X84309Y115487D01*
X84341Y115538D01*
X84380Y115585D01*
X84462Y115728D01*
X84550Y115867D01*
X84574Y115923D01*
X84604Y115976D01*
X84659Y116131D01*
X84721Y116283D01*
X84734Y116343D01*
X84755Y116401D01*
X84781Y116563D01*
X84816Y116724D01*
X84821Y116800D01*
X84828Y116845D01*
X84827Y116906D01*
X84835Y117035D01*
X84835Y125984D01*
X84832Y126019D01*
X84834Y126053D01*
X84812Y126242D01*
X84795Y126433D01*
X84786Y126466D01*
X84782Y126500D01*
X84727Y126683D01*
X84677Y126867D01*
X84662Y126898D01*
X84652Y126931D01*
X84565Y127102D01*
X84483Y127274D01*
X84463Y127302D01*
X84448Y127333D01*
X84332Y127485D01*
X84221Y127640D01*
X84196Y127664D01*
X84176Y127691D01*
X84036Y127820D01*
X83899Y127954D01*
X83870Y127973D01*
X83844Y127997D01*
X83683Y128099D01*
X83526Y128206D01*
X83494Y128220D01*
X83465Y128238D01*
X83288Y128311D01*
X83114Y128388D01*
X83080Y128396D01*
X83048Y128409D01*
X82861Y128449D01*
X82676Y128495D01*
X82642Y128497D01*
X82608Y128504D01*
X82296Y128523D01*
X78616Y128523D01*
X77723Y129416D01*
X77723Y149984D01*
X78616Y150877D01*
X99184Y150877D01*
X100077Y149984D01*
X100077Y147334D01*
X100093Y147156D01*
X100102Y146979D01*
X100112Y146933D01*
X100117Y146885D01*
X100163Y146714D01*
X100204Y146541D01*
X100223Y146497D01*
X100235Y146451D01*
X100311Y146291D01*
X100382Y146127D01*
X100408Y146087D01*
X100429Y146044D01*
X100532Y145900D01*
X100630Y145751D01*
X100663Y145717D01*
X100691Y145678D01*
X100818Y145554D01*
X100941Y145425D01*
X100979Y145397D01*
X101013Y145364D01*
X101161Y145265D01*
X101304Y145160D01*
X101347Y145139D01*
X101386Y145112D01*
X101549Y145040D01*
X101709Y144962D01*
X101755Y144949D01*
X101798Y144930D01*
X101971Y144888D01*
X102142Y144839D01*
X102190Y144834D01*
X102236Y144823D01*
X102413Y144812D01*
X102590Y144795D01*
X102638Y144798D01*
X102685Y144796D01*
X102862Y144816D01*
X103039Y144830D01*
X103085Y144842D01*
X103132Y144848D01*
X103303Y144899D01*
X103475Y144944D01*
X103518Y144964D01*
X103563Y144978D01*
X103722Y145059D01*
X103883Y145133D01*
X103922Y145161D01*
X103965Y145182D01*
X104106Y145290D01*
X104252Y145392D01*
X104285Y145426D01*
X104323Y145454D01*
X104444Y145585D01*
X104569Y145711D01*
X104596Y145750D01*
X104628Y145785D01*
X104715Y145921D01*
X107969Y149175D01*
X108668Y149465D01*
X108855Y149563D01*
X109045Y149659D01*
X109055Y149667D01*
X109067Y149673D01*
X109235Y149803D01*
X109403Y149931D01*
X109412Y149941D01*
X109423Y149949D01*
X109565Y150106D01*
X109709Y150262D01*
X109716Y150273D01*
X109724Y150283D01*
X109836Y150463D01*
X109950Y150642D01*
X109955Y150654D01*
X109962Y150665D01*
X110040Y150862D01*
X110121Y151059D01*
X110124Y151071D01*
X110129Y151084D01*
X110171Y151291D01*
X110216Y151499D01*
X110217Y151514D01*
X110219Y151525D01*
X110220Y151564D01*
X110235Y151811D01*
X110235Y158496D01*
X110232Y158531D01*
X110234Y158565D01*
X110212Y158754D01*
X110195Y158945D01*
X110186Y158978D01*
X110182Y159012D01*
X110127Y159195D01*
X110077Y159379D01*
X110062Y159410D01*
X110052Y159443D01*
X109965Y159614D01*
X109883Y159786D01*
X109863Y159814D01*
X109848Y159845D01*
X109732Y159997D01*
X109621Y160152D01*
X109596Y160176D01*
X109576Y160203D01*
X109436Y160332D01*
X109299Y160466D01*
X109270Y160485D01*
X109244Y160509D01*
X109083Y160611D01*
X108926Y160718D01*
X108894Y160732D01*
X108865Y160750D01*
X108688Y160823D01*
X108514Y160900D01*
X108480Y160908D01*
X108448Y160921D01*
X108261Y160961D01*
X108076Y161007D01*
X108042Y161009D01*
X108008Y161016D01*
X107696Y161035D01*
X66235Y161035D01*
X66072Y161021D01*
X65907Y161014D01*
X65848Y161001D01*
X65787Y160995D01*
X65628Y160952D01*
X65468Y160916D01*
X65411Y160893D01*
X65353Y160877D01*
X65204Y160806D01*
X65052Y160743D01*
X65001Y160710D01*
X64946Y160683D01*
X64812Y160588D01*
X64674Y160498D01*
X64616Y160447D01*
X64580Y160421D01*
X64537Y160378D01*
X64440Y160292D01*
X57023Y152874D01*
X57001Y152848D01*
X56975Y152825D01*
X56857Y152676D01*
X56734Y152529D01*
X56717Y152499D01*
X56695Y152472D01*
X56605Y152304D01*
X56511Y152138D01*
X56499Y152106D01*
X56483Y152075D01*
X56424Y151894D01*
X56360Y151714D01*
X56354Y151680D01*
X56343Y151647D01*
X56317Y151458D01*
X56286Y151270D01*
X56287Y151235D01*
X56282Y151201D01*
X56290Y151010D01*
X56292Y150819D01*
X56299Y150785D01*
X56300Y150751D01*
X56342Y150565D01*
X56378Y150377D01*
X56390Y150345D01*
X56398Y150311D01*
X56471Y150136D01*
X56540Y149957D01*
X56558Y149928D01*
X56572Y149896D01*
X56675Y149736D01*
X56774Y149573D01*
X56797Y149547D01*
X56816Y149518D01*
X57023Y149283D01*
X60275Y146031D01*
X61977Y141923D01*
X61977Y137477D01*
X60275Y133369D01*
X57131Y130225D01*
X53023Y128523D01*
X48577Y128523D01*
X45676Y129725D01*
X45597Y129750D01*
X45522Y129783D01*
X45383Y129817D01*
X45246Y129860D01*
X45164Y129870D01*
X45084Y129890D01*
X44942Y129898D01*
X44799Y129916D01*
X44717Y129912D01*
X44635Y129917D01*
X44493Y129901D01*
X44350Y129893D01*
X44270Y129875D01*
X44188Y129865D01*
X44050Y129824D01*
X43911Y129791D01*
X43836Y129759D01*
X43757Y129735D01*
X43629Y129670D01*
X43498Y129613D01*
X43429Y129568D01*
X43355Y129531D01*
X43241Y129444D01*
X43122Y129365D01*
X43062Y129308D01*
X42997Y129259D01*
X42900Y129153D01*
X42796Y129054D01*
X42747Y128988D01*
X42691Y128927D01*
X42614Y128807D01*
X42530Y128691D01*
X42494Y128617D01*
X42450Y128548D01*
X42395Y128415D01*
X42332Y128287D01*
X42310Y128207D01*
X42279Y128131D01*
X42249Y127991D01*
X42209Y127853D01*
X42201Y127772D01*
X42184Y127691D01*
X42169Y127445D01*
X42165Y127405D01*
X42166Y127395D01*
X42165Y127379D01*
X42165Y110591D01*
X42176Y110461D01*
X42178Y110331D01*
X42196Y110237D01*
X42205Y110142D01*
X42239Y110016D01*
X42264Y109888D01*
X42298Y109800D01*
X42323Y109708D01*
X42379Y109590D01*
X42426Y109469D01*
X42476Y109387D01*
X42517Y109301D01*
X42592Y109195D01*
X42660Y109084D01*
X42723Y109013D01*
X42779Y108935D01*
X42872Y108844D01*
X42959Y108747D01*
X43033Y108688D01*
X43101Y108621D01*
X43210Y108548D01*
X43312Y108467D01*
X43395Y108422D01*
X43474Y108369D01*
X43594Y108316D01*
X43709Y108255D01*
X43799Y108225D01*
X43886Y108187D01*
X44013Y108156D01*
X44137Y108116D01*
X44231Y108103D01*
X44324Y108080D01*
X44454Y108072D01*
X44583Y108054D01*
X44678Y108058D01*
X44773Y108052D01*
X44902Y108068D01*
X45033Y108073D01*
X45126Y108094D01*
X45220Y108105D01*
X45345Y108142D01*
X45472Y108171D01*
X45560Y108207D01*
X45651Y108235D01*
X45768Y108294D01*
X45888Y108344D01*
X45968Y108396D01*
X45977Y108401D01*
X49183Y109729D01*
X52417Y109729D01*
X55405Y108491D01*
X57691Y106205D01*
X58929Y103217D01*
X58929Y100271D01*
X58943Y100108D01*
X58950Y99943D01*
X58963Y99884D01*
X58969Y99823D01*
X59012Y99664D01*
X59048Y99504D01*
X59071Y99447D01*
X59087Y99389D01*
X59158Y99240D01*
X59221Y99088D01*
X59254Y99037D01*
X59281Y98982D01*
X59376Y98848D01*
X59466Y98710D01*
X59517Y98652D01*
X59543Y98616D01*
X59586Y98573D01*
X59672Y98476D01*
X127940Y30208D01*
X128066Y30103D01*
X128187Y29991D01*
X128238Y29959D01*
X128285Y29920D01*
X128428Y29838D01*
X128567Y29750D01*
X128623Y29726D01*
X128676Y29696D01*
X128831Y29641D01*
X128983Y29579D01*
X129043Y29566D01*
X129101Y29545D01*
X129263Y29519D01*
X129424Y29484D01*
X129500Y29479D01*
X129545Y29472D01*
X129606Y29473D01*
X129735Y29465D01*
X131217Y29465D01*
X131381Y29479D01*
X131545Y29486D01*
X131605Y29499D01*
X131666Y29505D01*
X131824Y29548D01*
X131985Y29584D01*
X132041Y29607D01*
X132100Y29623D01*
X132249Y29694D01*
X132400Y29757D01*
X132452Y29790D01*
X132507Y29817D01*
X132640Y29912D01*
X132779Y30002D01*
X132836Y30053D01*
X132873Y30079D01*
X132915Y30122D01*
X133013Y30208D01*
X135095Y32291D01*
X138083Y33529D01*
X141317Y33529D01*
X144305Y32291D01*
X146591Y30005D01*
X147829Y27017D01*
X147829Y23783D01*
X146504Y20586D01*
X146469Y20534D01*
X146431Y20446D01*
X146383Y20364D01*
X146340Y20241D01*
X146287Y20122D01*
X146264Y20029D01*
X146232Y19940D01*
X146211Y19811D01*
X146180Y19684D01*
X146174Y19589D01*
X146159Y19495D01*
X146160Y19365D01*
X146152Y19235D01*
X146163Y19140D01*
X146165Y19045D01*
X146189Y18917D01*
X146205Y18788D01*
X146232Y18697D01*
X146250Y18603D01*
X146297Y18482D01*
X146335Y18357D01*
X146378Y18272D01*
X146412Y18183D01*
X146480Y18072D01*
X146539Y17955D01*
X146597Y17880D01*
X146646Y17798D01*
X146732Y17700D01*
X146811Y17597D01*
X146881Y17532D01*
X146944Y17461D01*
X147046Y17380D01*
X147142Y17291D01*
X147223Y17240D01*
X147297Y17181D01*
X147412Y17120D01*
X147522Y17050D01*
X147610Y17014D01*
X147694Y16969D01*
X147818Y16928D01*
X147939Y16879D01*
X148032Y16859D01*
X148122Y16829D01*
X148251Y16811D01*
X148379Y16784D01*
X148508Y16776D01*
X148568Y16768D01*
X148613Y16770D01*
X148691Y16765D01*
X175065Y16765D01*
X175228Y16779D01*
G37*
G36*
X54290Y10172D02*
X54290Y10172D01*
X54420Y10174D01*
X54514Y10192D01*
X54609Y10201D01*
X54735Y10235D01*
X54862Y10260D01*
X54951Y10294D01*
X55043Y10319D01*
X55161Y10375D01*
X55282Y10422D01*
X55364Y10472D01*
X55450Y10513D01*
X55556Y10588D01*
X55667Y10656D01*
X55739Y10719D01*
X55816Y10775D01*
X55907Y10868D01*
X56004Y10954D01*
X56064Y11029D01*
X56130Y11097D01*
X56203Y11205D01*
X56284Y11307D01*
X56329Y11391D01*
X56382Y11470D01*
X56435Y11589D01*
X56496Y11704D01*
X56526Y11795D01*
X56565Y11882D01*
X56595Y12009D01*
X56636Y12132D01*
X56649Y12227D01*
X56671Y12320D01*
X56679Y12449D01*
X56697Y12578D01*
X56693Y12674D01*
X56699Y12769D01*
X56684Y12898D01*
X56679Y13028D01*
X56658Y13121D01*
X56647Y13216D01*
X56609Y13341D01*
X56581Y13468D01*
X56544Y13556D01*
X56517Y13647D01*
X56457Y13763D01*
X56407Y13883D01*
X56356Y13963D01*
X56312Y14049D01*
X56234Y14152D01*
X56163Y14261D01*
X56077Y14359D01*
X56040Y14407D01*
X56007Y14438D01*
X55956Y14496D01*
X53924Y16528D01*
X53798Y16633D01*
X53677Y16745D01*
X53626Y16777D01*
X53579Y16816D01*
X53436Y16898D01*
X53297Y16986D01*
X53241Y17010D01*
X53188Y17040D01*
X53033Y17095D01*
X52881Y17157D01*
X52821Y17170D01*
X52763Y17191D01*
X52601Y17217D01*
X52440Y17252D01*
X52363Y17257D01*
X52319Y17264D01*
X52258Y17263D01*
X52129Y17271D01*
X49183Y17271D01*
X46195Y18509D01*
X43909Y20795D01*
X42671Y23783D01*
X42671Y27017D01*
X43909Y30005D01*
X46195Y32291D01*
X49183Y33529D01*
X52417Y33529D01*
X55405Y32291D01*
X57691Y30005D01*
X58929Y27017D01*
X58929Y24071D01*
X58943Y23908D01*
X58950Y23743D01*
X58963Y23684D01*
X58969Y23623D01*
X59012Y23464D01*
X59048Y23304D01*
X59071Y23247D01*
X59087Y23189D01*
X59158Y23040D01*
X59221Y22888D01*
X59254Y22837D01*
X59281Y22782D01*
X59376Y22648D01*
X59466Y22510D01*
X59517Y22452D01*
X59543Y22416D01*
X59586Y22373D01*
X59672Y22276D01*
X64440Y17508D01*
X64566Y17403D01*
X64687Y17291D01*
X64738Y17259D01*
X64785Y17220D01*
X64928Y17138D01*
X65067Y17050D01*
X65123Y17026D01*
X65176Y16996D01*
X65331Y16941D01*
X65483Y16879D01*
X65543Y16866D01*
X65601Y16845D01*
X65763Y16819D01*
X65924Y16784D01*
X66000Y16779D01*
X66045Y16772D01*
X66106Y16773D01*
X66235Y16765D01*
X67209Y16765D01*
X67339Y16776D01*
X67469Y16778D01*
X67563Y16796D01*
X67658Y16805D01*
X67784Y16839D01*
X67912Y16864D01*
X68000Y16898D01*
X68092Y16923D01*
X68210Y16979D01*
X68331Y17026D01*
X68413Y17076D01*
X68499Y17117D01*
X68605Y17192D01*
X68716Y17260D01*
X68787Y17323D01*
X68865Y17379D01*
X68956Y17472D01*
X69053Y17559D01*
X69112Y17633D01*
X69179Y17701D01*
X69252Y17810D01*
X69333Y17912D01*
X69378Y17995D01*
X69431Y18074D01*
X69484Y18194D01*
X69545Y18309D01*
X69575Y18399D01*
X69613Y18486D01*
X69644Y18613D01*
X69684Y18737D01*
X69697Y18831D01*
X69720Y18924D01*
X69728Y19054D01*
X69746Y19183D01*
X69742Y19278D01*
X69748Y19373D01*
X69732Y19502D01*
X69727Y19633D01*
X69706Y19726D01*
X69695Y19820D01*
X69658Y19945D01*
X69629Y20072D01*
X69593Y20160D01*
X69565Y20251D01*
X69506Y20368D01*
X69456Y20488D01*
X69404Y20568D01*
X69399Y20577D01*
X68071Y23783D01*
X68071Y26729D01*
X68057Y26892D01*
X68050Y27057D01*
X68037Y27116D01*
X68031Y27177D01*
X67988Y27336D01*
X67952Y27496D01*
X67929Y27553D01*
X67913Y27611D01*
X67842Y27760D01*
X67779Y27912D01*
X67746Y27963D01*
X67719Y28018D01*
X67624Y28152D01*
X67534Y28290D01*
X67483Y28348D01*
X67457Y28384D01*
X67414Y28427D01*
X67328Y28524D01*
X34654Y61198D01*
X34350Y61932D01*
X34267Y62090D01*
X34191Y62250D01*
X34167Y62284D01*
X34161Y62294D01*
X34159Y62298D01*
X34141Y62331D01*
X34032Y62472D01*
X33929Y62616D01*
X33895Y62649D01*
X33866Y62687D01*
X33734Y62806D01*
X33607Y62930D01*
X33567Y62957D01*
X33531Y62989D01*
X33381Y63082D01*
X33234Y63182D01*
X33190Y63201D01*
X33149Y63226D01*
X32984Y63292D01*
X32822Y63364D01*
X32775Y63375D01*
X32731Y63393D01*
X32557Y63429D01*
X32384Y63471D01*
X32337Y63474D01*
X32290Y63483D01*
X32112Y63487D01*
X31935Y63498D01*
X31887Y63493D01*
X31840Y63494D01*
X31664Y63467D01*
X31488Y63446D01*
X31442Y63432D01*
X31395Y63425D01*
X31227Y63367D01*
X31057Y63316D01*
X31014Y63294D01*
X30969Y63279D01*
X30814Y63192D01*
X30655Y63112D01*
X30617Y63083D01*
X30576Y63059D01*
X30438Y62947D01*
X30297Y62840D01*
X30264Y62804D01*
X30227Y62774D01*
X30112Y62639D01*
X29991Y62509D01*
X29966Y62468D01*
X29935Y62432D01*
X29845Y62279D01*
X29750Y62129D01*
X29731Y62084D01*
X29707Y62043D01*
X29646Y61877D01*
X29579Y61712D01*
X29569Y61665D01*
X29552Y61621D01*
X29521Y61446D01*
X29512Y61403D01*
X29493Y61326D01*
X29493Y61312D01*
X29484Y61272D01*
X29480Y61213D01*
X29474Y61177D01*
X29474Y61114D01*
X29465Y60960D01*
X29465Y33883D01*
X29479Y33719D01*
X29486Y33555D01*
X29499Y33495D01*
X29505Y33434D01*
X29548Y33276D01*
X29584Y33115D01*
X29607Y33059D01*
X29623Y33000D01*
X29694Y32851D01*
X29757Y32700D01*
X29790Y32648D01*
X29817Y32593D01*
X29912Y32460D01*
X30002Y32321D01*
X30053Y32264D01*
X30079Y32227D01*
X30122Y32185D01*
X30208Y32087D01*
X32291Y30005D01*
X33529Y27017D01*
X33529Y23783D01*
X32291Y20795D01*
X30005Y18509D01*
X27017Y17271D01*
X23783Y17271D01*
X20795Y18509D01*
X18509Y20795D01*
X17271Y23783D01*
X17271Y27017D01*
X18509Y30005D01*
X20592Y32087D01*
X20697Y32213D01*
X20809Y32334D01*
X20841Y32386D01*
X20880Y32433D01*
X20962Y32575D01*
X21050Y32714D01*
X21074Y32771D01*
X21104Y32824D01*
X21159Y32979D01*
X21221Y33131D01*
X21234Y33190D01*
X21255Y33248D01*
X21281Y33410D01*
X21316Y33571D01*
X21321Y33648D01*
X21328Y33692D01*
X21327Y33753D01*
X21335Y33883D01*
X21335Y93117D01*
X21321Y93281D01*
X21314Y93445D01*
X21301Y93505D01*
X21295Y93566D01*
X21252Y93724D01*
X21216Y93885D01*
X21193Y93941D01*
X21177Y94000D01*
X21106Y94149D01*
X21043Y94300D01*
X21010Y94352D01*
X20983Y94407D01*
X20888Y94540D01*
X20798Y94679D01*
X20747Y94736D01*
X20721Y94773D01*
X20678Y94815D01*
X20592Y94913D01*
X18509Y96995D01*
X17271Y99983D01*
X17271Y103217D01*
X18509Y106205D01*
X20795Y108491D01*
X23783Y109729D01*
X27017Y109729D01*
X30214Y108404D01*
X30266Y108369D01*
X30354Y108331D01*
X30436Y108283D01*
X30559Y108240D01*
X30678Y108187D01*
X30771Y108164D01*
X30860Y108132D01*
X30989Y108111D01*
X31116Y108080D01*
X31211Y108074D01*
X31305Y108059D01*
X31435Y108060D01*
X31565Y108052D01*
X31660Y108063D01*
X31755Y108065D01*
X31883Y108089D01*
X32012Y108105D01*
X32103Y108132D01*
X32197Y108150D01*
X32318Y108197D01*
X32443Y108235D01*
X32528Y108278D01*
X32617Y108312D01*
X32728Y108380D01*
X32845Y108439D01*
X32920Y108497D01*
X33002Y108546D01*
X33100Y108632D01*
X33203Y108711D01*
X33268Y108781D01*
X33339Y108844D01*
X33420Y108946D01*
X33509Y109042D01*
X33560Y109123D01*
X33619Y109197D01*
X33680Y109312D01*
X33750Y109422D01*
X33786Y109510D01*
X33831Y109594D01*
X33872Y109718D01*
X33921Y109839D01*
X33941Y109932D01*
X33971Y110022D01*
X33989Y110151D01*
X34016Y110279D01*
X34024Y110408D01*
X34032Y110468D01*
X34030Y110513D01*
X34035Y110591D01*
X34035Y124265D01*
X34021Y124428D01*
X34014Y124593D01*
X34001Y124652D01*
X33995Y124713D01*
X33952Y124872D01*
X33916Y125032D01*
X33893Y125089D01*
X33877Y125147D01*
X33806Y125296D01*
X33743Y125448D01*
X33710Y125499D01*
X33683Y125554D01*
X33588Y125688D01*
X33498Y125826D01*
X33447Y125884D01*
X33421Y125920D01*
X33378Y125963D01*
X33292Y126060D01*
X31572Y127780D01*
X31446Y127885D01*
X31325Y127997D01*
X31274Y128029D01*
X31227Y128068D01*
X31084Y128150D01*
X30945Y128238D01*
X30889Y128262D01*
X30836Y128292D01*
X30681Y128347D01*
X30529Y128409D01*
X30469Y128422D01*
X30411Y128443D01*
X30249Y128469D01*
X30088Y128504D01*
X30012Y128509D01*
X29967Y128516D01*
X29906Y128515D01*
X29777Y128523D01*
X15116Y128523D01*
X14496Y129144D01*
X14396Y129228D01*
X14303Y129318D01*
X14223Y129372D01*
X14150Y129433D01*
X14037Y129498D01*
X13930Y129570D01*
X13842Y129609D01*
X13759Y129656D01*
X13637Y129700D01*
X13518Y129753D01*
X13425Y129775D01*
X13335Y129807D01*
X13207Y129829D01*
X13080Y129859D01*
X12985Y129865D01*
X12891Y129881D01*
X12761Y129879D01*
X12631Y129887D01*
X12536Y129876D01*
X12440Y129875D01*
X12313Y129850D01*
X12184Y129835D01*
X12092Y129807D01*
X11998Y129789D01*
X11877Y129742D01*
X11753Y129705D01*
X11667Y129661D01*
X11578Y129627D01*
X11467Y129559D01*
X11351Y129500D01*
X11275Y129443D01*
X11194Y129393D01*
X11096Y129307D01*
X10993Y129228D01*
X10928Y129158D01*
X10856Y129095D01*
X10776Y128993D01*
X10687Y128897D01*
X10636Y128817D01*
X10577Y128742D01*
X10515Y128627D01*
X10446Y128517D01*
X10409Y128429D01*
X10364Y128345D01*
X10324Y128221D01*
X10275Y128101D01*
X10255Y128007D01*
X10225Y127917D01*
X10207Y127788D01*
X10180Y127661D01*
X10172Y127531D01*
X10164Y127470D01*
X10165Y127426D01*
X10161Y127349D01*
X10161Y12700D01*
X10164Y12665D01*
X10162Y12631D01*
X10184Y12442D01*
X10201Y12251D01*
X10210Y12218D01*
X10214Y12184D01*
X10269Y12001D01*
X10319Y11817D01*
X10334Y11786D01*
X10344Y11753D01*
X10431Y11582D01*
X10513Y11410D01*
X10533Y11382D01*
X10548Y11351D01*
X10664Y11199D01*
X10775Y11044D01*
X10800Y11020D01*
X10820Y10993D01*
X10960Y10864D01*
X11097Y10730D01*
X11126Y10711D01*
X11152Y10687D01*
X11313Y10585D01*
X11470Y10478D01*
X11502Y10464D01*
X11531Y10446D01*
X11708Y10373D01*
X11882Y10296D01*
X11916Y10288D01*
X11948Y10275D01*
X12135Y10235D01*
X12320Y10189D01*
X12354Y10187D01*
X12388Y10180D01*
X12700Y10161D01*
X54161Y10161D01*
X54290Y10172D01*
G37*
G36*
X39138Y144798D02*
X39138Y144798D01*
X39185Y144796D01*
X39362Y144816D01*
X39539Y144830D01*
X39585Y144842D01*
X39632Y144848D01*
X39803Y144899D01*
X39974Y144944D01*
X40018Y144964D01*
X40063Y144978D01*
X40222Y145059D01*
X40383Y145133D01*
X40422Y145161D01*
X40465Y145182D01*
X40606Y145290D01*
X40752Y145392D01*
X40785Y145425D01*
X40823Y145454D01*
X40944Y145585D01*
X41069Y145711D01*
X41096Y145750D01*
X41128Y145785D01*
X41215Y145921D01*
X44469Y149175D01*
X45168Y149465D01*
X45355Y149563D01*
X45545Y149659D01*
X45555Y149667D01*
X45567Y149673D01*
X45735Y149803D01*
X45903Y149931D01*
X45912Y149941D01*
X45923Y149949D01*
X46065Y150106D01*
X46209Y150262D01*
X46216Y150273D01*
X46224Y150283D01*
X46336Y150463D01*
X46450Y150642D01*
X46455Y150654D01*
X46462Y150665D01*
X46540Y150862D01*
X46621Y151059D01*
X46624Y151071D01*
X46629Y151084D01*
X46671Y151291D01*
X46716Y151499D01*
X46717Y151514D01*
X46719Y151525D01*
X46720Y151564D01*
X46735Y151811D01*
X46735Y153209D01*
X47354Y154702D01*
X59697Y167045D01*
X61198Y168546D01*
X62691Y169165D01*
X191309Y169165D01*
X192802Y168546D01*
X194303Y167046D01*
X194303Y167045D01*
X204185Y157164D01*
X204202Y157149D01*
X204218Y157131D01*
X204374Y157005D01*
X204530Y156875D01*
X204550Y156863D01*
X204568Y156849D01*
X204745Y156752D01*
X204921Y156651D01*
X204943Y156644D01*
X204963Y156633D01*
X205155Y156568D01*
X205345Y156501D01*
X205368Y156497D01*
X205390Y156490D01*
X205589Y156460D01*
X205789Y156427D01*
X205813Y156427D01*
X205835Y156424D01*
X206037Y156431D01*
X206240Y156433D01*
X206262Y156438D01*
X206285Y156438D01*
X206483Y156480D01*
X206682Y156519D01*
X206703Y156527D01*
X206726Y156532D01*
X206913Y156608D01*
X207102Y156681D01*
X207122Y156693D01*
X207143Y156702D01*
X207314Y156810D01*
X207486Y156915D01*
X207504Y156930D01*
X207523Y156943D01*
X207673Y157080D01*
X207824Y157213D01*
X207838Y157231D01*
X207855Y157247D01*
X207978Y157409D01*
X208103Y157566D01*
X208114Y157587D01*
X208128Y157605D01*
X208221Y157786D01*
X208316Y157963D01*
X208323Y157985D01*
X208334Y158006D01*
X208433Y158302D01*
X210293Y165244D01*
X214698Y172874D01*
X214721Y172897D01*
X214774Y172976D01*
X214836Y173050D01*
X214900Y173163D01*
X214973Y173270D01*
X215012Y173358D01*
X215059Y173440D01*
X215103Y173563D01*
X215155Y173682D01*
X215178Y173775D01*
X215210Y173865D01*
X215231Y173993D01*
X215262Y174120D01*
X215268Y174215D01*
X215283Y174309D01*
X215282Y174439D01*
X215290Y174569D01*
X215279Y174664D01*
X215277Y174759D01*
X215253Y174887D01*
X215238Y175016D01*
X215210Y175108D01*
X215192Y175201D01*
X215145Y175322D01*
X215107Y175447D01*
X215064Y175532D01*
X215030Y175621D01*
X214962Y175732D01*
X214903Y175849D01*
X214845Y175925D01*
X214796Y176006D01*
X214710Y176104D01*
X214631Y176207D01*
X214561Y176272D01*
X214498Y176343D01*
X214396Y176424D01*
X214300Y176513D01*
X214219Y176564D01*
X214145Y176623D01*
X214030Y176684D01*
X213920Y176754D01*
X213832Y176791D01*
X213748Y176836D01*
X213624Y176876D01*
X213504Y176925D01*
X213410Y176945D01*
X213320Y176975D01*
X213191Y176993D01*
X213063Y177020D01*
X212934Y177028D01*
X212874Y177036D01*
X212829Y177035D01*
X212751Y177039D01*
X12700Y177039D01*
X12665Y177036D01*
X12631Y177038D01*
X12442Y177016D01*
X12251Y176999D01*
X12218Y176990D01*
X12184Y176986D01*
X12001Y176931D01*
X11817Y176881D01*
X11786Y176866D01*
X11753Y176856D01*
X11582Y176769D01*
X11410Y176687D01*
X11382Y176667D01*
X11351Y176652D01*
X11199Y176536D01*
X11044Y176425D01*
X11020Y176400D01*
X10993Y176380D01*
X10864Y176240D01*
X10730Y176103D01*
X10711Y176074D01*
X10687Y176048D01*
X10585Y175887D01*
X10478Y175730D01*
X10464Y175698D01*
X10446Y175669D01*
X10373Y175492D01*
X10296Y175318D01*
X10288Y175284D01*
X10275Y175252D01*
X10235Y175065D01*
X10189Y174880D01*
X10187Y174846D01*
X10180Y174812D01*
X10161Y174500D01*
X10161Y152051D01*
X10172Y151922D01*
X10174Y151792D01*
X10192Y151698D01*
X10201Y151603D01*
X10235Y151477D01*
X10260Y151350D01*
X10294Y151260D01*
X10319Y151168D01*
X10375Y151051D01*
X10422Y150930D01*
X10472Y150848D01*
X10513Y150762D01*
X10588Y150656D01*
X10656Y150545D01*
X10719Y150473D01*
X10775Y150396D01*
X10868Y150305D01*
X10954Y150208D01*
X11029Y150148D01*
X11097Y150082D01*
X11205Y150009D01*
X11307Y149928D01*
X11391Y149883D01*
X11470Y149830D01*
X11589Y149777D01*
X11704Y149716D01*
X11795Y149686D01*
X11882Y149647D01*
X12009Y149617D01*
X12132Y149576D01*
X12227Y149563D01*
X12320Y149541D01*
X12449Y149533D01*
X12578Y149515D01*
X12674Y149519D01*
X12769Y149513D01*
X12898Y149528D01*
X13028Y149533D01*
X13121Y149554D01*
X13216Y149565D01*
X13341Y149603D01*
X13468Y149631D01*
X13556Y149668D01*
X13647Y149695D01*
X13763Y149754D01*
X13883Y149805D01*
X13963Y149856D01*
X14049Y149900D01*
X14152Y149978D01*
X14261Y150049D01*
X14359Y150135D01*
X14407Y150172D01*
X14438Y150205D01*
X14496Y150256D01*
X15116Y150877D01*
X35684Y150877D01*
X36577Y149984D01*
X36577Y147334D01*
X36592Y147157D01*
X36602Y146979D01*
X36612Y146933D01*
X36617Y146885D01*
X36663Y146714D01*
X36704Y146541D01*
X36723Y146497D01*
X36735Y146451D01*
X36811Y146291D01*
X36882Y146127D01*
X36908Y146087D01*
X36929Y146044D01*
X37032Y145900D01*
X37130Y145752D01*
X37163Y145717D01*
X37191Y145678D01*
X37318Y145554D01*
X37441Y145426D01*
X37479Y145397D01*
X37513Y145364D01*
X37660Y145265D01*
X37804Y145160D01*
X37847Y145139D01*
X37886Y145112D01*
X38049Y145040D01*
X38209Y144962D01*
X38255Y144949D01*
X38298Y144930D01*
X38471Y144888D01*
X38642Y144839D01*
X38689Y144835D01*
X38736Y144823D01*
X38913Y144812D01*
X39090Y144795D01*
X39138Y144798D01*
G37*
G36*
X182181Y80279D02*
X182181Y80279D01*
X182345Y80286D01*
X182405Y80299D01*
X182466Y80305D01*
X182624Y80348D01*
X182785Y80384D01*
X182841Y80407D01*
X182900Y80423D01*
X183049Y80494D01*
X183200Y80557D01*
X183252Y80590D01*
X183307Y80617D01*
X183440Y80712D01*
X183579Y80802D01*
X183636Y80853D01*
X183673Y80879D01*
X183715Y80922D01*
X183813Y81008D01*
X187133Y84329D01*
X193867Y84329D01*
X194800Y83395D01*
X194900Y83312D01*
X194993Y83221D01*
X195073Y83168D01*
X195146Y83106D01*
X195259Y83042D01*
X195366Y82969D01*
X195454Y82930D01*
X195537Y82883D01*
X195659Y82839D01*
X195778Y82787D01*
X195871Y82764D01*
X195961Y82732D01*
X196089Y82711D01*
X196216Y82680D01*
X196311Y82674D01*
X196405Y82659D01*
X196535Y82660D01*
X196665Y82652D01*
X196760Y82664D01*
X196856Y82665D01*
X196983Y82690D01*
X197112Y82705D01*
X197204Y82732D01*
X197298Y82750D01*
X197419Y82797D01*
X197543Y82835D01*
X197629Y82878D01*
X197718Y82913D01*
X197829Y82980D01*
X197945Y83039D01*
X198021Y83097D01*
X198102Y83147D01*
X198200Y83233D01*
X198303Y83311D01*
X198368Y83381D01*
X198440Y83445D01*
X198520Y83547D01*
X198609Y83642D01*
X198660Y83723D01*
X198719Y83798D01*
X198781Y83912D01*
X198850Y84022D01*
X198887Y84110D01*
X198932Y84195D01*
X198972Y84318D01*
X199021Y84439D01*
X199041Y84532D01*
X199071Y84623D01*
X199089Y84752D01*
X199116Y84879D01*
X199124Y85009D01*
X199132Y85069D01*
X199131Y85114D01*
X199135Y85191D01*
X199135Y149665D01*
X199121Y149828D01*
X199114Y149993D01*
X199101Y150052D01*
X199095Y150113D01*
X199052Y150272D01*
X199016Y150432D01*
X198993Y150489D01*
X198977Y150547D01*
X198906Y150696D01*
X198843Y150848D01*
X198810Y150899D01*
X198783Y150954D01*
X198688Y151088D01*
X198598Y151226D01*
X198547Y151284D01*
X198521Y151320D01*
X198478Y151363D01*
X198392Y151460D01*
X189560Y160292D01*
X189434Y160397D01*
X189313Y160509D01*
X189262Y160541D01*
X189215Y160580D01*
X189072Y160662D01*
X188933Y160750D01*
X188877Y160774D01*
X188824Y160804D01*
X188669Y160859D01*
X188517Y160921D01*
X188457Y160934D01*
X188400Y160955D01*
X188237Y160981D01*
X188076Y161016D01*
X187999Y161021D01*
X187955Y161028D01*
X187895Y161027D01*
X187765Y161035D01*
X184404Y161035D01*
X184369Y161032D01*
X184335Y161034D01*
X184146Y161012D01*
X183955Y160995D01*
X183922Y160986D01*
X183888Y160982D01*
X183705Y160927D01*
X183521Y160877D01*
X183490Y160862D01*
X183457Y160852D01*
X183286Y160765D01*
X183114Y160683D01*
X183086Y160663D01*
X183055Y160648D01*
X182903Y160532D01*
X182748Y160421D01*
X182724Y160396D01*
X182697Y160376D01*
X182568Y160236D01*
X182434Y160099D01*
X182415Y160070D01*
X182391Y160044D01*
X182289Y159883D01*
X182182Y159726D01*
X182168Y159694D01*
X182150Y159665D01*
X182077Y159488D01*
X182000Y159314D01*
X181992Y159280D01*
X181979Y159248D01*
X181939Y159061D01*
X181893Y158876D01*
X181891Y158842D01*
X181884Y158808D01*
X181865Y158496D01*
X181865Y151811D01*
X181884Y151599D01*
X181900Y151388D01*
X181903Y151375D01*
X181905Y151362D01*
X181961Y151157D01*
X182014Y150952D01*
X182020Y150940D01*
X182023Y150928D01*
X182113Y150738D01*
X182203Y150544D01*
X182211Y150533D01*
X182217Y150521D01*
X182339Y150349D01*
X182462Y150175D01*
X182471Y150166D01*
X182479Y150155D01*
X182631Y150006D01*
X182781Y149858D01*
X182792Y149850D01*
X182801Y149841D01*
X182978Y149722D01*
X183151Y149602D01*
X183166Y149595D01*
X183174Y149589D01*
X183211Y149573D01*
X183432Y149465D01*
X184131Y149175D01*
X187275Y146031D01*
X188977Y141923D01*
X188977Y137477D01*
X187275Y133369D01*
X184131Y130225D01*
X180023Y128523D01*
X175577Y128523D01*
X171469Y130225D01*
X168242Y133452D01*
X168145Y133577D01*
X168041Y133722D01*
X168007Y133755D01*
X167978Y133793D01*
X167846Y133912D01*
X167719Y134036D01*
X167679Y134062D01*
X167644Y134094D01*
X167493Y134188D01*
X167346Y134288D01*
X167302Y134307D01*
X167261Y134332D01*
X167096Y134398D01*
X166934Y134470D01*
X166888Y134481D01*
X166843Y134499D01*
X166669Y134535D01*
X166496Y134577D01*
X166449Y134580D01*
X166402Y134589D01*
X166224Y134594D01*
X166047Y134604D01*
X166000Y134599D01*
X165952Y134600D01*
X165777Y134573D01*
X165600Y134552D01*
X165554Y134539D01*
X165507Y134531D01*
X165339Y134474D01*
X165169Y134422D01*
X165126Y134400D01*
X165081Y134385D01*
X164926Y134298D01*
X164767Y134218D01*
X164730Y134189D01*
X164688Y134166D01*
X164550Y134053D01*
X164409Y133946D01*
X164376Y133911D01*
X164339Y133880D01*
X164224Y133745D01*
X164103Y133615D01*
X164078Y133574D01*
X164047Y133538D01*
X163957Y133385D01*
X163862Y133235D01*
X163844Y133191D01*
X163819Y133150D01*
X163758Y132983D01*
X163691Y132818D01*
X163681Y132772D01*
X163664Y132727D01*
X163633Y132552D01*
X163611Y132449D01*
X163605Y132425D01*
X163605Y132421D01*
X163596Y132378D01*
X163592Y132319D01*
X163586Y132283D01*
X163586Y132220D01*
X163577Y132066D01*
X163577Y129416D01*
X162684Y128523D01*
X159004Y128523D01*
X158969Y128520D01*
X158935Y128522D01*
X158746Y128500D01*
X158555Y128483D01*
X158522Y128474D01*
X158488Y128470D01*
X158305Y128415D01*
X158121Y128365D01*
X158090Y128350D01*
X158057Y128340D01*
X157886Y128253D01*
X157714Y128171D01*
X157686Y128151D01*
X157655Y128136D01*
X157503Y128020D01*
X157348Y127909D01*
X157324Y127884D01*
X157297Y127864D01*
X157168Y127724D01*
X157034Y127587D01*
X157015Y127558D01*
X156991Y127532D01*
X156889Y127371D01*
X156782Y127214D01*
X156768Y127182D01*
X156750Y127153D01*
X156677Y126976D01*
X156600Y126802D01*
X156592Y126768D01*
X156579Y126736D01*
X156539Y126549D01*
X156493Y126364D01*
X156491Y126330D01*
X156484Y126296D01*
X156465Y125984D01*
X156465Y91635D01*
X156479Y91472D01*
X156486Y91307D01*
X156499Y91248D01*
X156505Y91187D01*
X156548Y91028D01*
X156584Y90868D01*
X156607Y90811D01*
X156623Y90753D01*
X156694Y90604D01*
X156757Y90452D01*
X156790Y90401D01*
X156817Y90346D01*
X156912Y90212D01*
X157002Y90074D01*
X157053Y90016D01*
X157079Y89980D01*
X157122Y89937D01*
X157208Y89840D01*
X166040Y81008D01*
X166166Y80903D01*
X166287Y80791D01*
X166338Y80759D01*
X166385Y80720D01*
X166528Y80638D01*
X166667Y80550D01*
X166723Y80526D01*
X166776Y80496D01*
X166931Y80441D01*
X167083Y80379D01*
X167143Y80366D01*
X167201Y80345D01*
X167363Y80319D01*
X167524Y80284D01*
X167600Y80279D01*
X167645Y80272D01*
X167706Y80273D01*
X167835Y80265D01*
X182017Y80265D01*
X182181Y80279D01*
G37*
G36*
X86328Y16779D02*
X86328Y16779D01*
X86493Y16786D01*
X86552Y16799D01*
X86613Y16805D01*
X86772Y16848D01*
X86932Y16884D01*
X86989Y16907D01*
X87047Y16923D01*
X87196Y16994D01*
X87348Y17057D01*
X87399Y17090D01*
X87454Y17117D01*
X87588Y17212D01*
X87726Y17302D01*
X87784Y17353D01*
X87820Y17379D01*
X87863Y17422D01*
X87960Y17508D01*
X92728Y22276D01*
X92833Y22402D01*
X92945Y22523D01*
X92977Y22574D01*
X93016Y22621D01*
X93098Y22764D01*
X93186Y22903D01*
X93210Y22959D01*
X93240Y23012D01*
X93295Y23167D01*
X93357Y23319D01*
X93370Y23379D01*
X93391Y23437D01*
X93417Y23599D01*
X93452Y23760D01*
X93457Y23836D01*
X93464Y23881D01*
X93463Y23942D01*
X93471Y24071D01*
X93471Y27017D01*
X94709Y30005D01*
X96995Y32291D01*
X99983Y33529D01*
X103217Y33529D01*
X106205Y32291D01*
X108491Y30005D01*
X109729Y27017D01*
X109729Y24071D01*
X109743Y23908D01*
X109750Y23743D01*
X109763Y23684D01*
X109769Y23623D01*
X109812Y23464D01*
X109848Y23304D01*
X109871Y23247D01*
X109887Y23189D01*
X109958Y23040D01*
X110021Y22888D01*
X110054Y22837D01*
X110081Y22782D01*
X110176Y22648D01*
X110266Y22510D01*
X110317Y22452D01*
X110343Y22416D01*
X110386Y22373D01*
X110472Y22276D01*
X115240Y17508D01*
X115366Y17403D01*
X115487Y17291D01*
X115538Y17259D01*
X115585Y17220D01*
X115728Y17138D01*
X115867Y17050D01*
X115923Y17026D01*
X115976Y16996D01*
X116131Y16941D01*
X116283Y16879D01*
X116343Y16866D01*
X116401Y16845D01*
X116563Y16819D01*
X116724Y16784D01*
X116800Y16779D01*
X116845Y16772D01*
X116906Y16773D01*
X117035Y16765D01*
X124460Y16765D01*
X124637Y16780D01*
X124814Y16790D01*
X124861Y16800D01*
X124909Y16805D01*
X125080Y16851D01*
X125253Y16892D01*
X125297Y16911D01*
X125343Y16923D01*
X125503Y16999D01*
X125666Y17070D01*
X125706Y17096D01*
X125750Y17117D01*
X125894Y17220D01*
X126042Y17318D01*
X126077Y17351D01*
X126116Y17379D01*
X126239Y17506D01*
X126368Y17628D01*
X126396Y17667D01*
X126430Y17701D01*
X126529Y17849D01*
X126634Y17992D01*
X126655Y18035D01*
X126682Y18074D01*
X126754Y18237D01*
X126832Y18396D01*
X126845Y18442D01*
X126864Y18486D01*
X126906Y18659D01*
X126955Y18830D01*
X126959Y18877D01*
X126971Y18924D01*
X126982Y19101D01*
X126999Y19278D01*
X126995Y19325D01*
X126998Y19373D01*
X126978Y19550D01*
X126964Y19727D01*
X126952Y19773D01*
X126946Y19820D01*
X126895Y19991D01*
X126850Y20162D01*
X126830Y20205D01*
X126816Y20251D01*
X126735Y20410D01*
X126661Y20571D01*
X126633Y20610D01*
X126612Y20653D01*
X126504Y20794D01*
X126402Y20940D01*
X126369Y20973D01*
X126340Y21011D01*
X126209Y21132D01*
X126083Y21257D01*
X126044Y21284D01*
X126009Y21316D01*
X125859Y21412D01*
X125713Y21513D01*
X125659Y21539D01*
X125629Y21558D01*
X125570Y21582D01*
X125432Y21650D01*
X124698Y21954D01*
X53924Y92728D01*
X53798Y92833D01*
X53677Y92945D01*
X53626Y92977D01*
X53579Y93016D01*
X53436Y93098D01*
X53297Y93186D01*
X53241Y93210D01*
X53188Y93240D01*
X53033Y93295D01*
X52881Y93357D01*
X52821Y93370D01*
X52763Y93391D01*
X52601Y93417D01*
X52440Y93452D01*
X52364Y93457D01*
X52319Y93464D01*
X52258Y93463D01*
X52129Y93471D01*
X49183Y93471D01*
X45986Y94796D01*
X45934Y94831D01*
X45846Y94869D01*
X45764Y94917D01*
X45641Y94960D01*
X45522Y95013D01*
X45429Y95036D01*
X45340Y95068D01*
X45211Y95089D01*
X45084Y95120D01*
X44989Y95126D01*
X44895Y95141D01*
X44765Y95140D01*
X44635Y95148D01*
X44540Y95137D01*
X44445Y95135D01*
X44317Y95111D01*
X44188Y95095D01*
X44097Y95068D01*
X44003Y95050D01*
X43882Y95003D01*
X43757Y94965D01*
X43672Y94922D01*
X43583Y94888D01*
X43472Y94820D01*
X43355Y94761D01*
X43280Y94703D01*
X43198Y94654D01*
X43100Y94568D01*
X42997Y94489D01*
X42932Y94419D01*
X42861Y94356D01*
X42780Y94254D01*
X42691Y94158D01*
X42640Y94077D01*
X42581Y94003D01*
X42520Y93888D01*
X42450Y93778D01*
X42414Y93690D01*
X42369Y93606D01*
X42328Y93482D01*
X42279Y93361D01*
X42259Y93268D01*
X42229Y93178D01*
X42211Y93049D01*
X42184Y92921D01*
X42176Y92792D01*
X42168Y92732D01*
X42170Y92687D01*
X42165Y92609D01*
X42165Y66235D01*
X42179Y66072D01*
X42186Y65907D01*
X42199Y65848D01*
X42205Y65787D01*
X42248Y65628D01*
X42284Y65468D01*
X42307Y65411D01*
X42323Y65353D01*
X42394Y65204D01*
X42457Y65052D01*
X42490Y65001D01*
X42517Y64946D01*
X42612Y64812D01*
X42702Y64674D01*
X42753Y64616D01*
X42779Y64580D01*
X42822Y64537D01*
X42908Y64440D01*
X73076Y34272D01*
X73202Y34167D01*
X73323Y34055D01*
X73374Y34023D01*
X73421Y33984D01*
X73564Y33902D01*
X73703Y33814D01*
X73759Y33790D01*
X73812Y33760D01*
X73967Y33705D01*
X74119Y33643D01*
X74179Y33630D01*
X74237Y33609D01*
X74399Y33583D01*
X74560Y33548D01*
X74636Y33543D01*
X74681Y33536D01*
X74742Y33537D01*
X74871Y33529D01*
X77817Y33529D01*
X80805Y32291D01*
X83091Y30005D01*
X84329Y27017D01*
X84329Y23783D01*
X83004Y20586D01*
X82969Y20534D01*
X82931Y20446D01*
X82883Y20364D01*
X82840Y20241D01*
X82787Y20122D01*
X82764Y20029D01*
X82732Y19940D01*
X82711Y19811D01*
X82680Y19684D01*
X82674Y19589D01*
X82659Y19495D01*
X82660Y19365D01*
X82652Y19235D01*
X82663Y19140D01*
X82665Y19045D01*
X82689Y18917D01*
X82705Y18788D01*
X82732Y18697D01*
X82750Y18603D01*
X82797Y18482D01*
X82835Y18357D01*
X82878Y18272D01*
X82912Y18183D01*
X82980Y18072D01*
X83039Y17955D01*
X83097Y17880D01*
X83146Y17798D01*
X83232Y17700D01*
X83311Y17597D01*
X83381Y17532D01*
X83444Y17461D01*
X83546Y17380D01*
X83642Y17291D01*
X83723Y17240D01*
X83797Y17181D01*
X83912Y17120D01*
X84022Y17050D01*
X84110Y17014D01*
X84194Y16969D01*
X84318Y16928D01*
X84439Y16879D01*
X84532Y16859D01*
X84622Y16829D01*
X84751Y16811D01*
X84879Y16784D01*
X85008Y16776D01*
X85068Y16768D01*
X85113Y16770D01*
X85191Y16765D01*
X86165Y16765D01*
X86328Y16779D01*
G37*
G36*
X234731Y80268D02*
X234731Y80268D01*
X234765Y80266D01*
X234954Y80288D01*
X235145Y80305D01*
X235178Y80314D01*
X235212Y80318D01*
X235395Y80373D01*
X235579Y80423D01*
X235610Y80438D01*
X235643Y80448D01*
X235814Y80535D01*
X235986Y80617D01*
X236014Y80637D01*
X236045Y80652D01*
X236197Y80768D01*
X236352Y80879D01*
X236376Y80904D01*
X236403Y80924D01*
X236532Y81064D01*
X236666Y81201D01*
X236685Y81230D01*
X236709Y81256D01*
X236811Y81417D01*
X236918Y81574D01*
X236932Y81606D01*
X236950Y81635D01*
X237023Y81812D01*
X237100Y81986D01*
X237108Y82020D01*
X237121Y82052D01*
X237161Y82239D01*
X237207Y82424D01*
X237209Y82458D01*
X237216Y82492D01*
X237235Y82804D01*
X237235Y117092D01*
X237222Y117244D01*
X237217Y117397D01*
X237202Y117468D01*
X237195Y117541D01*
X237155Y117688D01*
X237123Y117838D01*
X237096Y117905D01*
X237077Y117975D01*
X237011Y118113D01*
X236953Y118255D01*
X236915Y118316D01*
X236883Y118382D01*
X236794Y118506D01*
X236713Y118635D01*
X236664Y118689D01*
X236621Y118748D01*
X236512Y118855D01*
X236408Y118967D01*
X236351Y119011D01*
X236299Y119062D01*
X236172Y119147D01*
X236050Y119240D01*
X235986Y119273D01*
X235926Y119314D01*
X235786Y119376D01*
X235650Y119446D01*
X235561Y119475D01*
X235514Y119496D01*
X235458Y119510D01*
X235353Y119545D01*
X228456Y121393D01*
X220869Y125774D01*
X214674Y131969D01*
X212003Y136594D01*
X211996Y136604D01*
X211991Y136614D01*
X211868Y136787D01*
X211744Y136963D01*
X211736Y136971D01*
X211729Y136980D01*
X211575Y137130D01*
X211424Y137280D01*
X211415Y137286D01*
X211407Y137294D01*
X211228Y137415D01*
X211054Y137535D01*
X211043Y137540D01*
X211034Y137546D01*
X210837Y137633D01*
X210644Y137721D01*
X210632Y137724D01*
X210622Y137729D01*
X210415Y137779D01*
X210207Y137832D01*
X210195Y137833D01*
X210184Y137835D01*
X209973Y137848D01*
X209758Y137864D01*
X209746Y137862D01*
X209735Y137863D01*
X209522Y137838D01*
X209310Y137816D01*
X209299Y137812D01*
X209288Y137811D01*
X209081Y137749D01*
X208878Y137689D01*
X208868Y137684D01*
X208857Y137681D01*
X208666Y137584D01*
X208475Y137488D01*
X208466Y137482D01*
X208455Y137476D01*
X208286Y137348D01*
X208114Y137220D01*
X208106Y137211D01*
X208097Y137204D01*
X207952Y137048D01*
X207806Y136891D01*
X207799Y136882D01*
X207791Y136873D01*
X207676Y136693D01*
X207560Y136514D01*
X207556Y136503D01*
X207550Y136493D01*
X207468Y136295D01*
X207386Y136099D01*
X207383Y136088D01*
X207379Y136077D01*
X207334Y135867D01*
X207287Y135660D01*
X207286Y135648D01*
X207284Y135637D01*
X207265Y135325D01*
X207265Y82804D01*
X207268Y82769D01*
X207266Y82735D01*
X207288Y82546D01*
X207305Y82355D01*
X207314Y82322D01*
X207318Y82288D01*
X207373Y82105D01*
X207423Y81921D01*
X207438Y81890D01*
X207448Y81857D01*
X207535Y81686D01*
X207617Y81514D01*
X207637Y81486D01*
X207652Y81455D01*
X207768Y81303D01*
X207879Y81148D01*
X207904Y81124D01*
X207924Y81097D01*
X208064Y80968D01*
X208201Y80834D01*
X208230Y80815D01*
X208256Y80791D01*
X208417Y80689D01*
X208574Y80582D01*
X208606Y80568D01*
X208635Y80550D01*
X208812Y80477D01*
X208986Y80400D01*
X209020Y80392D01*
X209052Y80379D01*
X209239Y80339D01*
X209424Y80293D01*
X209458Y80291D01*
X209492Y80284D01*
X209804Y80265D01*
X234696Y80265D01*
X234731Y80268D01*
G37*
G36*
X266664Y61021D02*
X266664Y61021D01*
X266760Y61023D01*
X266887Y61047D01*
X267016Y61062D01*
X267108Y61090D01*
X267202Y61108D01*
X267323Y61155D01*
X267447Y61193D01*
X267533Y61236D01*
X267622Y61270D01*
X267733Y61338D01*
X267849Y61397D01*
X267925Y61455D01*
X268006Y61504D01*
X268104Y61591D01*
X268207Y61669D01*
X268272Y61739D01*
X268344Y61803D01*
X268424Y61905D01*
X268513Y62000D01*
X268564Y62081D01*
X268623Y62156D01*
X268684Y62270D01*
X268754Y62380D01*
X268791Y62468D01*
X268836Y62553D01*
X268876Y62676D01*
X268925Y62796D01*
X268945Y62890D01*
X268975Y62981D01*
X268993Y63109D01*
X269020Y63237D01*
X269028Y63366D01*
X269036Y63427D01*
X269035Y63472D01*
X269039Y63549D01*
X269039Y126951D01*
X269028Y127081D01*
X269026Y127211D01*
X269008Y127305D01*
X268999Y127400D01*
X268965Y127525D01*
X268940Y127653D01*
X268906Y127742D01*
X268881Y127834D01*
X268825Y127951D01*
X268778Y128073D01*
X268728Y128155D01*
X268687Y128241D01*
X268612Y128347D01*
X268544Y128458D01*
X268481Y128529D01*
X268425Y128607D01*
X268332Y128698D01*
X268246Y128795D01*
X268171Y128854D01*
X268103Y128921D01*
X267995Y128994D01*
X267893Y129075D01*
X267809Y129120D01*
X267730Y129173D01*
X267611Y129226D01*
X267496Y129287D01*
X267405Y129317D01*
X267318Y129355D01*
X267191Y129386D01*
X267068Y129426D01*
X266973Y129439D01*
X266880Y129462D01*
X266751Y129470D01*
X266622Y129488D01*
X266526Y129484D01*
X266431Y129490D01*
X266302Y129475D01*
X266172Y129469D01*
X266079Y129449D01*
X265984Y129438D01*
X265859Y129400D01*
X265732Y129372D01*
X265644Y129335D01*
X265553Y129307D01*
X265437Y129248D01*
X265317Y129198D01*
X265237Y129146D01*
X265151Y129103D01*
X265048Y129024D01*
X264939Y128954D01*
X264841Y128868D01*
X264793Y128831D01*
X264762Y128798D01*
X264704Y128747D01*
X261731Y125774D01*
X254144Y121393D01*
X247247Y119545D01*
X247103Y119492D01*
X246957Y119448D01*
X246892Y119415D01*
X246824Y119390D01*
X246692Y119313D01*
X246555Y119244D01*
X246498Y119200D01*
X246435Y119163D01*
X246319Y119064D01*
X246197Y118972D01*
X246147Y118918D01*
X246092Y118871D01*
X245995Y118753D01*
X245891Y118641D01*
X245852Y118579D01*
X245806Y118523D01*
X245732Y118390D01*
X245650Y118261D01*
X245622Y118194D01*
X245587Y118130D01*
X245537Y117986D01*
X245479Y117844D01*
X245463Y117773D01*
X245440Y117705D01*
X245416Y117554D01*
X245384Y117404D01*
X245378Y117311D01*
X245370Y117260D01*
X245372Y117203D01*
X245365Y117092D01*
X245365Y73408D01*
X245378Y73256D01*
X245383Y73103D01*
X245398Y73032D01*
X245405Y72959D01*
X245445Y72812D01*
X245477Y72662D01*
X245504Y72595D01*
X245523Y72525D01*
X245589Y72387D01*
X245647Y72245D01*
X245685Y72184D01*
X245717Y72118D01*
X245806Y71994D01*
X245887Y71865D01*
X245936Y71811D01*
X245979Y71752D01*
X246088Y71645D01*
X246192Y71533D01*
X246249Y71489D01*
X246301Y71438D01*
X246428Y71353D01*
X246550Y71260D01*
X246614Y71227D01*
X246674Y71186D01*
X246814Y71124D01*
X246950Y71054D01*
X247039Y71025D01*
X247086Y71004D01*
X247142Y70990D01*
X247247Y70955D01*
X254144Y69107D01*
X261731Y64726D01*
X264704Y61753D01*
X264804Y61670D01*
X264897Y61579D01*
X264977Y61525D01*
X265050Y61464D01*
X265163Y61400D01*
X265270Y61327D01*
X265358Y61288D01*
X265441Y61241D01*
X265563Y61197D01*
X265682Y61145D01*
X265775Y61122D01*
X265865Y61090D01*
X265993Y61069D01*
X266120Y61038D01*
X266215Y61032D01*
X266309Y61017D01*
X266439Y61018D01*
X266569Y61010D01*
X266664Y61021D01*
G37*
%LPC*%
G36*
X138083Y68071D02*
X138083Y68071D01*
X135095Y69309D01*
X133013Y71392D01*
X132887Y71497D01*
X132766Y71609D01*
X132714Y71641D01*
X132667Y71680D01*
X132525Y71762D01*
X132386Y71850D01*
X132329Y71874D01*
X132276Y71904D01*
X132121Y71959D01*
X131969Y72021D01*
X131910Y72034D01*
X131852Y72055D01*
X131690Y72081D01*
X131529Y72116D01*
X131452Y72121D01*
X131408Y72128D01*
X131347Y72127D01*
X131217Y72135D01*
X126191Y72135D01*
X124698Y72754D01*
X104724Y92728D01*
X104598Y92833D01*
X104477Y92945D01*
X104426Y92977D01*
X104379Y93016D01*
X104236Y93098D01*
X104097Y93186D01*
X104041Y93210D01*
X103988Y93240D01*
X103833Y93295D01*
X103681Y93357D01*
X103621Y93370D01*
X103563Y93391D01*
X103401Y93417D01*
X103240Y93452D01*
X103164Y93457D01*
X103119Y93464D01*
X103058Y93463D01*
X102929Y93471D01*
X99983Y93471D01*
X96995Y94709D01*
X94709Y96995D01*
X93471Y99983D01*
X93471Y103217D01*
X94709Y106205D01*
X96995Y108491D01*
X99983Y109729D01*
X103217Y109729D01*
X106205Y108491D01*
X108491Y106205D01*
X109729Y103217D01*
X109729Y100271D01*
X109743Y100108D01*
X109750Y99943D01*
X109763Y99884D01*
X109769Y99823D01*
X109812Y99664D01*
X109848Y99504D01*
X109871Y99447D01*
X109887Y99389D01*
X109958Y99240D01*
X110021Y99088D01*
X110054Y99037D01*
X110081Y98982D01*
X110176Y98848D01*
X110266Y98710D01*
X110317Y98652D01*
X110343Y98616D01*
X110386Y98573D01*
X110472Y98476D01*
X127940Y81008D01*
X128066Y80903D01*
X128187Y80791D01*
X128238Y80759D01*
X128285Y80720D01*
X128428Y80638D01*
X128567Y80550D01*
X128623Y80526D01*
X128676Y80496D01*
X128831Y80441D01*
X128983Y80379D01*
X129043Y80366D01*
X129101Y80345D01*
X129263Y80319D01*
X129424Y80284D01*
X129500Y80279D01*
X129545Y80272D01*
X129606Y80273D01*
X129735Y80265D01*
X131217Y80265D01*
X131381Y80279D01*
X131545Y80286D01*
X131605Y80299D01*
X131666Y80305D01*
X131824Y80348D01*
X131985Y80384D01*
X132041Y80407D01*
X132100Y80423D01*
X132249Y80494D01*
X132400Y80557D01*
X132452Y80590D01*
X132507Y80617D01*
X132640Y80712D01*
X132779Y80802D01*
X132836Y80853D01*
X132873Y80879D01*
X132915Y80922D01*
X133013Y81008D01*
X135095Y83091D01*
X138083Y84329D01*
X141317Y84329D01*
X144305Y83091D01*
X146591Y80805D01*
X147829Y77817D01*
X147829Y74583D01*
X146591Y71595D01*
X144305Y69309D01*
X141317Y68071D01*
X138083Y68071D01*
G37*
%LPD*%
G36*
X216181Y10172D02*
X216181Y10172D01*
X216311Y10174D01*
X216405Y10192D01*
X216500Y10201D01*
X216625Y10235D01*
X216753Y10260D01*
X216842Y10294D01*
X216934Y10319D01*
X217051Y10375D01*
X217173Y10422D01*
X217255Y10472D01*
X217341Y10513D01*
X217447Y10588D01*
X217558Y10656D01*
X217629Y10719D01*
X217707Y10775D01*
X217798Y10868D01*
X217895Y10954D01*
X217954Y11029D01*
X218021Y11097D01*
X218094Y11205D01*
X218175Y11307D01*
X218220Y11391D01*
X218273Y11470D01*
X218326Y11589D01*
X218387Y11704D01*
X218417Y11795D01*
X218455Y11882D01*
X218486Y12009D01*
X218526Y12132D01*
X218539Y12227D01*
X218562Y12320D01*
X218570Y12449D01*
X218588Y12578D01*
X218584Y12674D01*
X218590Y12769D01*
X218575Y12898D01*
X218569Y13028D01*
X218549Y13121D01*
X218538Y13216D01*
X218500Y13341D01*
X218472Y13468D01*
X218435Y13556D01*
X218407Y13647D01*
X218348Y13763D01*
X218298Y13883D01*
X218246Y13963D01*
X218203Y14049D01*
X218124Y14152D01*
X218054Y14261D01*
X217968Y14359D01*
X217931Y14407D01*
X217898Y14438D01*
X217847Y14496D01*
X214674Y17669D01*
X210293Y25256D01*
X208433Y32198D01*
X208425Y32220D01*
X208421Y32242D01*
X208348Y32431D01*
X208278Y32621D01*
X208267Y32641D01*
X208258Y32662D01*
X208153Y32835D01*
X208051Y33010D01*
X208036Y33027D01*
X208024Y33047D01*
X207890Y33199D01*
X207759Y33352D01*
X207742Y33367D01*
X207726Y33384D01*
X207568Y33510D01*
X207411Y33638D01*
X207391Y33650D01*
X207373Y33664D01*
X207195Y33759D01*
X207018Y33858D01*
X206997Y33866D01*
X206976Y33877D01*
X206785Y33939D01*
X206593Y34005D01*
X206570Y34009D01*
X206548Y34016D01*
X206348Y34043D01*
X206148Y34074D01*
X206125Y34074D01*
X206102Y34077D01*
X205900Y34069D01*
X205698Y34064D01*
X205675Y34060D01*
X205652Y34059D01*
X205454Y34015D01*
X205256Y33975D01*
X205235Y33966D01*
X205212Y33961D01*
X205026Y33883D01*
X204838Y33809D01*
X204818Y33796D01*
X204797Y33788D01*
X204627Y33678D01*
X204455Y33571D01*
X204438Y33556D01*
X204419Y33543D01*
X204185Y33336D01*
X199372Y28524D01*
X199267Y28398D01*
X199155Y28277D01*
X199123Y28226D01*
X199084Y28179D01*
X199002Y28036D01*
X198914Y27897D01*
X198890Y27841D01*
X198860Y27788D01*
X198805Y27633D01*
X198743Y27481D01*
X198730Y27421D01*
X198709Y27363D01*
X198683Y27201D01*
X198648Y27040D01*
X198643Y26963D01*
X198636Y26919D01*
X198637Y26858D01*
X198629Y26729D01*
X198629Y22033D01*
X193867Y17271D01*
X189171Y17271D01*
X189008Y17257D01*
X188843Y17250D01*
X188784Y17237D01*
X188723Y17231D01*
X188564Y17188D01*
X188404Y17152D01*
X188347Y17129D01*
X188289Y17113D01*
X188140Y17042D01*
X187988Y16979D01*
X187937Y16946D01*
X187882Y16919D01*
X187748Y16824D01*
X187610Y16734D01*
X187552Y16683D01*
X187516Y16657D01*
X187473Y16614D01*
X187376Y16528D01*
X185344Y14496D01*
X185260Y14396D01*
X185170Y14303D01*
X185116Y14223D01*
X185055Y14150D01*
X184990Y14037D01*
X184918Y13930D01*
X184879Y13842D01*
X184832Y13759D01*
X184788Y13637D01*
X184735Y13518D01*
X184713Y13425D01*
X184681Y13335D01*
X184660Y13206D01*
X184629Y13080D01*
X184623Y12985D01*
X184607Y12891D01*
X184609Y12760D01*
X184601Y12631D01*
X184612Y12536D01*
X184613Y12440D01*
X184638Y12313D01*
X184653Y12184D01*
X184681Y12092D01*
X184699Y11998D01*
X184746Y11877D01*
X184783Y11753D01*
X184827Y11668D01*
X184861Y11578D01*
X184929Y11467D01*
X184988Y11351D01*
X185045Y11275D01*
X185095Y11194D01*
X185181Y11096D01*
X185260Y10993D01*
X185330Y10928D01*
X185393Y10856D01*
X185495Y10776D01*
X185591Y10687D01*
X185672Y10636D01*
X185746Y10577D01*
X185861Y10516D01*
X185971Y10446D01*
X186059Y10409D01*
X186143Y10364D01*
X186267Y10324D01*
X186387Y10275D01*
X186481Y10255D01*
X186572Y10225D01*
X186700Y10207D01*
X186827Y10180D01*
X186957Y10172D01*
X187018Y10164D01*
X187062Y10165D01*
X187139Y10161D01*
X216051Y10161D01*
X216181Y10172D01*
G37*
G36*
X209884Y52638D02*
X209884Y52638D01*
X209896Y52638D01*
X210107Y52664D01*
X210320Y52689D01*
X210332Y52692D01*
X210343Y52694D01*
X210544Y52757D01*
X210751Y52819D01*
X210762Y52825D01*
X210773Y52828D01*
X210962Y52926D01*
X211153Y53024D01*
X211162Y53031D01*
X211172Y53036D01*
X211342Y53167D01*
X211511Y53296D01*
X211519Y53304D01*
X211528Y53311D01*
X211673Y53471D01*
X211816Y53627D01*
X211823Y53637D01*
X211830Y53645D01*
X212003Y53906D01*
X214674Y58531D01*
X220869Y64726D01*
X225494Y67397D01*
X225504Y67404D01*
X225514Y67409D01*
X225687Y67532D01*
X225863Y67656D01*
X225871Y67664D01*
X225880Y67671D01*
X226030Y67825D01*
X226180Y67976D01*
X226186Y67985D01*
X226194Y67993D01*
X226315Y68172D01*
X226435Y68346D01*
X226440Y68357D01*
X226446Y68366D01*
X226533Y68563D01*
X226621Y68756D01*
X226624Y68768D01*
X226629Y68778D01*
X226679Y68985D01*
X226732Y69193D01*
X226733Y69205D01*
X226735Y69216D01*
X226748Y69427D01*
X226764Y69642D01*
X226762Y69654D01*
X226763Y69665D01*
X226738Y69878D01*
X226716Y70090D01*
X226712Y70101D01*
X226711Y70112D01*
X226649Y70319D01*
X226589Y70522D01*
X226584Y70532D01*
X226581Y70543D01*
X226484Y70734D01*
X226388Y70925D01*
X226382Y70934D01*
X226376Y70945D01*
X226248Y71114D01*
X226120Y71286D01*
X226111Y71294D01*
X226104Y71303D01*
X225948Y71448D01*
X225791Y71594D01*
X225782Y71601D01*
X225773Y71609D01*
X225593Y71724D01*
X225414Y71840D01*
X225403Y71844D01*
X225393Y71850D01*
X225195Y71932D01*
X224999Y72014D01*
X224988Y72017D01*
X224977Y72021D01*
X224767Y72066D01*
X224560Y72113D01*
X224548Y72114D01*
X224537Y72116D01*
X224225Y72135D01*
X209804Y72135D01*
X209769Y72132D01*
X209735Y72134D01*
X209546Y72112D01*
X209355Y72095D01*
X209322Y72086D01*
X209288Y72082D01*
X209105Y72027D01*
X208921Y71977D01*
X208890Y71962D01*
X208857Y71952D01*
X208686Y71865D01*
X208514Y71783D01*
X208486Y71763D01*
X208455Y71748D01*
X208303Y71632D01*
X208148Y71521D01*
X208124Y71496D01*
X208097Y71476D01*
X207968Y71336D01*
X207834Y71199D01*
X207815Y71170D01*
X207791Y71144D01*
X207689Y70983D01*
X207582Y70826D01*
X207568Y70794D01*
X207550Y70765D01*
X207477Y70588D01*
X207400Y70414D01*
X207392Y70380D01*
X207379Y70348D01*
X207339Y70161D01*
X207293Y69976D01*
X207291Y69942D01*
X207284Y69908D01*
X207265Y69596D01*
X207265Y55175D01*
X207266Y55164D01*
X207265Y55152D01*
X207286Y54940D01*
X207305Y54727D01*
X207308Y54715D01*
X207309Y54704D01*
X207367Y54499D01*
X207423Y54292D01*
X207428Y54282D01*
X207431Y54271D01*
X207525Y54077D01*
X207617Y53886D01*
X207623Y53876D01*
X207628Y53866D01*
X207754Y53693D01*
X207879Y53520D01*
X207887Y53512D01*
X207894Y53502D01*
X208048Y53355D01*
X208201Y53206D01*
X208211Y53199D01*
X208219Y53191D01*
X208397Y53073D01*
X208574Y52954D01*
X208585Y52949D01*
X208595Y52942D01*
X208790Y52858D01*
X208986Y52771D01*
X208997Y52769D01*
X209008Y52764D01*
X209215Y52715D01*
X209424Y52665D01*
X209435Y52664D01*
X209446Y52661D01*
X209660Y52650D01*
X209873Y52637D01*
X209884Y52638D01*
G37*
G36*
X105090Y10172D02*
X105090Y10172D01*
X105220Y10174D01*
X105314Y10192D01*
X105409Y10201D01*
X105535Y10235D01*
X105662Y10260D01*
X105751Y10294D01*
X105843Y10319D01*
X105961Y10375D01*
X106082Y10422D01*
X106164Y10472D01*
X106250Y10513D01*
X106356Y10588D01*
X106467Y10656D01*
X106539Y10719D01*
X106616Y10775D01*
X106707Y10868D01*
X106804Y10954D01*
X106864Y11029D01*
X106930Y11097D01*
X107003Y11205D01*
X107084Y11307D01*
X107129Y11391D01*
X107182Y11470D01*
X107235Y11589D01*
X107296Y11704D01*
X107326Y11795D01*
X107365Y11882D01*
X107395Y12009D01*
X107436Y12132D01*
X107449Y12227D01*
X107471Y12320D01*
X107479Y12449D01*
X107497Y12578D01*
X107493Y12674D01*
X107499Y12769D01*
X107484Y12898D01*
X107479Y13028D01*
X107458Y13121D01*
X107447Y13216D01*
X107409Y13341D01*
X107381Y13468D01*
X107344Y13556D01*
X107317Y13647D01*
X107257Y13763D01*
X107207Y13883D01*
X107156Y13963D01*
X107112Y14049D01*
X107034Y14152D01*
X106963Y14261D01*
X106877Y14359D01*
X106840Y14407D01*
X106807Y14438D01*
X106756Y14496D01*
X104724Y16528D01*
X104598Y16633D01*
X104477Y16745D01*
X104426Y16777D01*
X104379Y16816D01*
X104236Y16898D01*
X104097Y16986D01*
X104041Y17010D01*
X103988Y17040D01*
X103833Y17095D01*
X103681Y17157D01*
X103621Y17170D01*
X103563Y17191D01*
X103401Y17217D01*
X103240Y17252D01*
X103163Y17257D01*
X103119Y17264D01*
X103058Y17263D01*
X102929Y17271D01*
X100271Y17271D01*
X100108Y17257D01*
X99943Y17250D01*
X99884Y17237D01*
X99823Y17231D01*
X99664Y17188D01*
X99504Y17152D01*
X99447Y17129D01*
X99389Y17113D01*
X99240Y17042D01*
X99088Y16979D01*
X99037Y16946D01*
X98982Y16919D01*
X98849Y16824D01*
X98710Y16735D01*
X98652Y16683D01*
X98616Y16657D01*
X98573Y16614D01*
X98476Y16528D01*
X96444Y14496D01*
X96361Y14396D01*
X96270Y14303D01*
X96216Y14223D01*
X96155Y14150D01*
X96090Y14037D01*
X96018Y13930D01*
X95979Y13842D01*
X95932Y13759D01*
X95888Y13637D01*
X95835Y13518D01*
X95813Y13425D01*
X95781Y13335D01*
X95760Y13207D01*
X95729Y13080D01*
X95723Y12985D01*
X95707Y12891D01*
X95709Y12761D01*
X95701Y12631D01*
X95712Y12536D01*
X95713Y12440D01*
X95738Y12313D01*
X95753Y12184D01*
X95781Y12092D01*
X95799Y11998D01*
X95846Y11877D01*
X95883Y11753D01*
X95927Y11667D01*
X95961Y11578D01*
X96029Y11467D01*
X96088Y11351D01*
X96146Y11275D01*
X96195Y11194D01*
X96281Y11096D01*
X96360Y10993D01*
X96430Y10928D01*
X96493Y10856D01*
X96595Y10776D01*
X96691Y10687D01*
X96772Y10636D01*
X96846Y10577D01*
X96961Y10515D01*
X97071Y10446D01*
X97159Y10409D01*
X97243Y10364D01*
X97367Y10324D01*
X97487Y10275D01*
X97581Y10255D01*
X97672Y10225D01*
X97800Y10207D01*
X97927Y10180D01*
X98057Y10172D01*
X98118Y10164D01*
X98162Y10165D01*
X98239Y10161D01*
X104961Y10161D01*
X105090Y10172D01*
G37*
D10*
X139700Y76200D03*
D11*
X190500Y76200D03*
D10*
X139700Y25400D03*
D11*
X190500Y25400D03*
D12*
X114300Y139700D03*
D13*
X88900Y139700D03*
D10*
X25400Y25400D03*
X50800Y25400D03*
X50800Y101600D03*
X25400Y101600D03*
X76200Y25400D03*
X101600Y25400D03*
X76200Y101600D03*
X101600Y101600D03*
D12*
X50800Y139700D03*
D13*
X25400Y139700D03*
D12*
X177800Y139700D03*
D13*
X152400Y139700D03*
D14*
X241300Y152400D03*
X241300Y38100D03*
D15*
X165100Y76200D02*
X152400Y88900D01*
X165100Y76200D02*
X190500Y76200D01*
X152400Y88900D02*
X152400Y139700D01*
X101600Y101600D02*
X127000Y76200D01*
X139700Y76200D01*
X88900Y114300D02*
X76200Y101600D01*
X88900Y114300D02*
X88900Y139700D01*
X25400Y101600D02*
X25400Y25400D01*
X50800Y25400D02*
X63500Y12700D01*
X88900Y12700D01*
X101600Y25400D01*
X114300Y12700D01*
X177800Y12700D01*
X190500Y25400D01*
X50800Y139700D02*
X50800Y152400D01*
X63500Y165100D01*
X114300Y165100D01*
X177800Y165100D01*
X114300Y165100D02*
X114300Y139700D01*
X190500Y165100D02*
X203200Y152400D01*
X203200Y76200D01*
X203200Y38100D01*
X190500Y25400D01*
X190500Y165100D02*
X177800Y165100D01*
X177800Y139700D01*
X241300Y152400D02*
X241300Y76200D01*
X241300Y38100D01*
X241300Y76200D02*
X203200Y76200D01*
X139700Y25400D02*
X127000Y25400D01*
X50800Y101600D01*
X38100Y63500D02*
X76200Y25400D01*
X38100Y127000D02*
X25400Y139700D01*
X38100Y127000D02*
X38100Y63500D01*
M02*
