G04 EAGLE Gerber RS-274X export*
G75*
%MOMM*%
%FSLAX34Y34*%
%LPD*%
%INSilkscreen Bottom*%
%IPPOS*%
%AMOC8*
5,1,8,0,0,1.08239X$1,22.5*%
G01*
%ADD10C,0.127000*%
%ADD11C,0.076200*%


D10*
X127000Y152400D02*
X116840Y152400D01*
X101600Y152400D01*
X86360Y152400D01*
X76200Y152400D01*
X76200Y127000D01*
X127000Y127000D02*
X127000Y152400D01*
X101600Y152400D02*
X101600Y127000D01*
X127000Y127000D01*
X101600Y127000D02*
X76200Y127000D01*
X127000Y152400D02*
X127000Y165100D01*
X116840Y165100D01*
X86360Y165100D01*
X76200Y165100D01*
X76200Y152400D01*
X86360Y152400D02*
X86360Y165100D01*
X116840Y165100D02*
X116840Y152400D01*
D11*
X83735Y157932D02*
X78825Y157932D01*
X81280Y160387D02*
X81280Y155476D01*
X118787Y157706D02*
X125053Y157706D01*
D10*
X63500Y127000D02*
X38100Y127000D01*
X12700Y127000D01*
X38100Y152400D02*
X63500Y152400D01*
X38100Y152400D02*
X12700Y152400D01*
X12700Y127000D01*
X63500Y127000D02*
X63500Y152400D01*
X38100Y152400D02*
X38100Y127000D01*
X63500Y152400D02*
X63500Y165100D01*
X12700Y165100D01*
X12700Y152400D01*
X165100Y127000D02*
X190500Y127000D01*
X165100Y127000D02*
X139700Y127000D01*
X165100Y152400D02*
X190500Y152400D01*
X165100Y152400D02*
X139700Y152400D01*
X139700Y127000D01*
X190500Y127000D02*
X190500Y152400D01*
X165100Y152400D02*
X165100Y127000D01*
X190500Y152400D02*
X190500Y165100D01*
X139700Y165100D01*
X139700Y152400D01*
M02*
