M48
;GenerationSoftware,Autodesk,EAGLE,9.3.1*%
;CreationDate,2020-09-06T15:56:24Z*%
FMAT,2
ICI,OFF
METRIC,TZ,000.000
T3C0.813
T2C1.200
T1C3.200
%
G90
M71
T1
X24130Y15240
X24130Y3810
T2
X11430Y13970
X8890Y13970
X5080Y13970
X2540Y13970
X17780Y13970
X15240Y13970
T3
X13970Y7620
X19050Y7620
X13970Y2540
X19050Y2540
X2540Y2540
X5080Y2540
X5080Y10160
X2540Y10160
X7620Y2540
X10160Y2540
X7620Y10160
X10160Y10160
M30